<svg width="24" height="24" viewBox="0 0 24 24" fill="none" xmlns="http://www.w3.org/2000/svg">
<path d="M18.6489 9.27273C18.3479 7.73032 17.52 6.34054 16.307 5.3414C15.094 4.34225 13.5713 3.7959 11.9998 3.7959C10.4283 3.7959 8.90566 4.34225 7.69266 5.3414C6.47966 6.34054 5.65176 7.73032 5.35072 9.27273C4.12108 9.32987 2.9645 9.87315 2.13542 10.783C1.30634 11.6929 0.872671 12.8949 0.929813 14.1246C0.986955 15.3542 1.53023 16.5108 2.44012 17.3398C3.35001 18.1689 4.55199 18.6026 5.78163 18.5455H6.50709C6.65175 18.5455 6.79049 18.488 6.89278 18.3857C6.99507 18.2834 7.05254 18.1447 7.05254 18C7.05254 17.8553 6.99507 17.7166 6.89278 17.6143C6.79049 17.512 6.65175 17.4546 6.50709 17.4546H5.78163C5.31604 17.4581 4.85429 17.37 4.42277 17.1951C3.99124 17.0202 3.59839 16.7621 3.26663 16.4354C2.93487 16.1087 2.67071 15.7199 2.48922 15.2911C2.30774 14.8623 2.21249 14.402 2.2089 13.9364C2.20532 13.4708 2.29348 13.009 2.46835 12.5775C2.64322 12.146 2.90137 11.7531 3.22806 11.4214C3.55475 11.0896 3.94359 10.8254 4.37237 10.644C4.80116 10.4625 5.26149 10.3672 5.72709 10.3636L6.27254 10.4891L6.34345 9.8891C6.51473 8.51547 7.1819 7.25172 8.21952 6.33545C9.25714 5.41918 10.5937 4.91351 11.978 4.91351C13.3623 4.91351 14.6989 5.41918 15.7365 6.33545C16.7741 7.25172 17.4413 8.51547 17.6125 9.8891L17.7216 10.4782L18.2671 10.3636C18.7327 10.3672 19.193 10.4625 19.6218 10.644C20.0506 10.8254 20.4394 11.0896 20.7661 11.4214C21.0928 11.7531 21.351 12.146 21.5258 12.5775C21.7007 13.009 21.7888 13.4708 21.7853 13.9364C21.7817 14.402 21.6864 14.8623 21.5049 15.2911C21.3235 15.7199 21.0593 16.1087 20.7275 16.4354C20.3958 16.7621 20.0029 17.0202 19.5714 17.1951C19.1399 17.37 18.6781 17.4581 18.2125 17.4546H17.3944C17.2497 17.4546 17.111 17.512 17.0087 17.6143C16.9064 17.7166 16.8489 17.8553 16.8489 18C16.8489 18.1447 16.9064 18.2834 17.0087 18.3857C17.111 18.488 17.2497 18.5455 17.3944 18.5455H18.218C19.4476 18.6026 20.6496 18.1689 21.5595 17.3398C22.4694 16.5108 23.0127 15.3542 23.0698 14.1246C23.127 12.8949 22.6933 11.6929 21.8642 10.783C21.0351 9.87315 19.8785 9.32987 18.6489 9.27273V9.27273Z" fill="#E0E0E0"/>
<path d="M14.7269 16.1675L12.5724 18.3493V11.6402C12.5724 11.4955 12.5149 11.3568 12.4126 11.2545C12.3103 11.1522 12.1716 11.0947 12.0269 11.0947C11.8823 11.0947 11.7435 11.1522 11.6412 11.2545C11.539 11.3568 11.4815 11.4955 11.4815 11.6402V18.322L9.32694 16.1402C9.27804 16.0831 9.21787 16.0367 9.1502 16.004C9.08252 15.9712 9.00881 15.9528 8.9337 15.9499C8.85858 15.947 8.78367 15.9597 8.71367 15.9871C8.64368 16.0145 8.58011 16.0561 8.52695 16.1093C8.47379 16.1624 8.4322 16.226 8.40477 16.296C8.37735 16.366 8.36469 16.4409 8.36759 16.516C8.3705 16.5911 8.38889 16.6649 8.42163 16.7325C8.45437 16.8002 8.50075 16.8604 8.55785 16.9093L11.6397 19.9965C11.6904 20.0477 11.7507 20.0882 11.8172 20.1159C11.8836 20.1436 11.9549 20.1579 12.0269 20.1579C12.0989 20.1579 12.1702 20.1436 12.2367 20.1159C12.3032 20.0882 12.3635 20.0477 12.4142 19.9965L15.496 16.9093C15.5628 16.8635 15.6186 16.8035 15.6593 16.7335C15.7 16.6635 15.7246 16.5854 15.7313 16.5047C15.7381 16.424 15.7268 16.3429 15.6982 16.2671C15.6697 16.1914 15.6247 16.1229 15.5664 16.0667C15.5082 16.0105 15.4381 15.968 15.3614 15.9422C15.2846 15.9164 15.2031 15.9081 15.1228 15.9177C15.0424 15.9274 14.9652 15.9548 14.8967 15.998C14.8282 16.0412 14.7702 16.0991 14.7269 16.1675V16.1675Z" fill="#E0E0E0"/>
</svg>
