<?xml version="1.0" encoding="UTF-8"?>
<svg width="282px" height="68px" viewBox="0 0 282 68" version="1.1" xmlns="http://www.w3.org/2000/svg" xmlns:xlink="http://www.w3.org/1999/xlink">
    <title>J9logo</title>
    <defs>
        <linearGradient x1="0.00221126047%" y1="49.9963865%" x2="99.9963405%" y2="50.0036243%" id="linearGradient-1">
            <stop stop-color="#EDCD94" offset="0%"></stop>
            <stop stop-color="#E3BC80" offset="100%"></stop>
        </linearGradient>
    </defs>
    <g id="PC" stroke="none" stroke-width="1" fill="none" fill-rule="evenodd">
        <g id="pc范围受限CN" transform="translate(-933.000000, -318.000000)" fill="url(#linearGradient-1)">
            <g id="内容" transform="translate(314.000000, 150.000000)">
                <g id="文案" transform="translate(619.000000, 160.000000)">
                    <g id="logo" transform="translate(0.000000, 0.000000)">
                        <g id="J9logo" transform="translate(0.000000, 6.000000)">
                            <path d="M189.184424,21.5994109 L189.576657,21.6027839 C202.499337,21.825093 213.315262,33.0064896 213.315262,46.1950219 L213.315262,46.1950219 L213.31196,46.5937201 C213.094345,59.7206248 202.148777,69.84 189.184424,69.84 L189.184424,69.84 L188.792222,69.8367687 C175.874679,69.6237766 165.470655,58.9082217 165.470655,45.7180942 C165.470655,32.3979556 176.085923,21.5994109 189.184424,21.5994109 L189.184424,21.5994109 Z M149.670797,21.9057484 L149.682782,21.9071582 L150.160743,21.9110807 C155.060152,21.9890216 158.734393,23.2265641 161.184919,25.6178488 L161.184919,25.6178488 L161.371287,25.8063128 C163.750532,28.2996666 164.43154,32.4825861 163.417273,38.3595515 L163.417273,38.3595515 L155.964374,38.3531065 L156.007914,37.940439 C156.249742,35.349147 155.846924,33.1809387 154.799459,31.4344328 L154.799459,31.4344328 L154.681139,31.2478486 C153.535542,29.5368648 151.234073,28.6789866 147.779608,28.6727638 L147.779608,28.6727638 L147.414841,28.6768151 C142.690632,28.7868589 138.659155,31.134621 135.321889,35.7171144 L135.321889,35.7171144 L134.992333,36.1799914 C132.928065,39.1455194 131.299257,42.7564701 130.10454,47.0086992 L130.10454,47.0086992 L129.973228,47.4889892 C128.831541,51.7869651 128.773152,55.4198434 129.800927,58.3905135 L129.800927,58.3905135 L129.89318,58.6436762 C131.011064,61.5556868 133.584992,63.0133014 137.614966,63.0180009 L137.614966,63.0180009 L138.027322,63.0128012 C141.035051,62.934996 143.686044,61.984284 145.980302,60.1564349 L145.980302,60.1564349 L146.355633,59.8488568 C148.588823,57.9682743 150.483698,55.4555936 152.042973,52.3080745 L152.042973,52.3080745 L159.494274,52.3161307 L159.254701,52.8709329 C156.754061,58.5553055 153.476695,62.7335663 149.42551,65.4042504 L149.42551,65.4042504 L148.990731,65.6845201 C144.914067,68.2544458 140.313044,69.5384211 135.18766,69.5306766 L135.18766,69.5306766 L134.784072,69.527119 C129.03949,69.428316 125.022583,67.2737307 122.736334,63.0663381 L122.736334,63.0663381 L122.555832,62.7242314 C120.382878,58.4775395 120.179341,53.2179175 121.943744,46.9394158 L121.943744,46.9394158 L122.127022,46.3025891 C124.364554,38.7067277 127.97722,32.7689768 132.966492,28.4923047 C138.084767,24.10167 143.650472,21.9071582 149.658812,21.9055469 L149.658812,21.9055469 L149.670797,21.9057484 L149.670797,21.9057484 Z M37.2293394,5.94136003 L53.6132529,5.98486356 L43.531705,45.9871717 L43.3096776,46.8662476 C42.6218889,49.4983422 41.7394298,52.0820172 40.6809392,54.5573685 L40.6809392,54.5573685 L40.4329927,55.1206817 C39.2493988,57.7314439 37.6956249,60.0884404 35.8119463,62.1366514 L35.8119463,62.1366514 L35.4449216,62.5251802 C33.4566485,64.5736858 30.9766986,66.2430441 28.0650222,67.4956427 L28.0650222,67.4956427 L27.6407434,67.6721618 C24.640218,68.8791774 20.9991209,69.4849492 16.8105696,69.4728205 L16.8105696,69.4728205 L16.2943041,69.4672723 C11.3365702,69.3726574 7.33219945,68.0899762 4.38800609,65.653993 L4.38800609,65.653993 L4.12289206,65.4273109 C1.42568407,63.0480103 0.0402486902,59.5250797 0,54.9376216 L0,54.9376216 L0,54.5154762 L0.00759032372,54.0979631 L0.00759032372,54.0979631 L0.0223714804,53.6744078 L0.452223497,48.6328312 L16.2129315,48.7440069 L15.9876187,50.614659 L15.9596404,50.8577211 C15.8670377,51.8975859 16.1468443,52.7642862 16.8041777,53.5003937 L16.8041777,53.5003937 L16.962641,53.666745 C17.6624224,54.3604106 18.5337443,54.7009992 19.6213863,54.7039915 L19.6213863,54.7039915 L19.9133284,54.699493 C21.0630325,54.6604975 21.9971884,54.3691011 22.7597854,53.8113634 L22.7597854,53.8113634 L23.0595492,53.5814906 C23.8417049,52.9540036 24.4873609,52.2092516 25.0256968,51.3155494 L25.0256968,51.3155494 L25.2586998,50.9133619 C25.7880999,49.9629116 26.2171779,48.9295012 26.5373697,47.8368776 L26.5373697,47.8368776 L26.7030593,47.2627493 C27.0287922,46.1251466 27.3201432,45.0526512 27.5680557,44.0665711 L27.5680557,44.0665711 L37.2293394,5.94136003 Z M79.914124,2.88 L80.5365033,2.8868112 C83.6351741,2.95338704 86.5338851,3.5073774 89.1615353,4.53152317 L89.1615353,4.53152317 L89.6565037,4.73133523 C92.2725755,5.82383413 94.5073791,7.34484669 96.3076253,9.25407382 L96.3076253,9.25407382 L96.6409344,9.61817814 C98.3899313,11.5835564 99.679891,13.9235483 100.481504,16.5803917 L100.481504,16.5803917 L100.616413,17.0512319 C101.347003,19.7380036 101.50136,22.740797 101.072751,25.9836008 L101.072751,25.9836008 L101.066359,26.0238818 L100.948883,26.7150016 C100.580626,28.7733859 100.070508,30.6955172 99.4348387,32.4414592 L99.4348387,32.4414592 L99.1646238,33.1589371 C98.5203295,34.8235799 97.7801481,36.4202202 96.9579962,37.9132374 L96.9579962,37.9132374 L96.5496072,38.6383668 C95.7188249,40.0816076 94.8048554,41.481218 93.822793,42.8098022 L93.822793,42.8098022 L92.9820898,43.9483713 C92.1360433,45.0955506 91.2740422,46.2683334 90.3967606,47.4646807 L90.3967606,47.4646807 L90.3759871,47.4920718 L73.3656721,69.4726368 L54.081456,69.4516906 L71.2963102,47.5806901 L70.901495,47.6052765 C70.6370617,47.6186438 70.3700244,47.6258049 70.099436,47.6258049 L70.099436,47.6258049 L69.5581403,47.6192025 C66.6885593,47.5518327 64.0975814,46.9703137 61.8491536,45.8921084 L61.8491536,45.8921084 L61.4036173,45.6709198 C59.1999558,44.5391245 57.3576794,43.0203714 55.9255052,41.1518341 L55.9255052,41.1518341 L55.6452012,40.7756877 C54.2698783,38.8722663 53.2880674,36.6296816 52.7247855,34.1010385 L52.7247855,34.1010385 L52.6125436,33.5653767 C52.1212527,31.0532989 52.0849612,28.3701726 52.5010707,25.5775677 L52.5010707,25.5775677 L52.5876368,24.9770831 C53.0838516,21.7899445 54.1320268,18.8514849 55.7081822,16.2355859 L55.7081822,16.2355859 L56.024678,15.7231515 C57.6315553,13.1819108 59.6034165,10.9558476 61.8954945,9.09939458 L61.8954945,9.09939458 L62.3574119,8.73347504 C64.6874103,6.92926544 67.3221765,5.50652606 70.1985097,4.4944646 L70.1985097,4.4944646 L70.7728361,4.30002513 C73.6561331,3.3586522 76.7127053,2.88 79.8661852,2.88 L79.8661852,2.88 L79.914124,2.88 Z M245.132301,23.4072246 L245.532114,23.4112161 C248.963021,23.4772971 251.506338,24.3620347 253.162064,26.0625516 L253.162064,26.0625516 L253.351796,26.2709595 C254.221798,27.273196 254.876039,28.6907023 255.31452,30.5208586 L255.31452,30.5208586 L255.736218,30.1022642 C257.991916,27.9043686 260.354025,26.2601657 262.826544,25.1683122 L262.826544,25.1683122 L263.320257,24.9575924 C265.796021,23.9379841 268.379665,23.4282715 271.067239,23.429782 L271.067239,23.429782 L271.439415,23.4329065 C277.342802,23.5265753 280.777407,25.7167264 281.743229,29.9988161 L281.743229,29.9988161 L281.803111,30.2855685 C282.250386,32.6106525 281.935048,35.6813448 280.862751,39.5019221 L280.862751,39.5019221 L272.436693,69.4726368 L264.472446,69.4678031 L273.264438,38.190371 L273.350917,37.8728557 C274.09396,35.0474583 273.884618,33.0925736 272.724326,32.0096463 L272.724326,32.0096463 L272.518973,31.8279193 C271.329566,30.827472 269.702578,30.3258087 267.63801,30.324287 L267.63801,30.324287 L267.246325,30.3295137 C264.379749,30.4092534 261.640369,31.4000363 259.028186,33.3018625 L259.028186,33.3018625 L258.748214,33.512138 C256.158817,35.5191232 254.232369,38.7696404 252.970309,43.2593388 L252.970309,43.2593388 L245.606896,69.4484682 L237.813631,69.4420232 L246.075099,40.0578007 L246.183801,39.6640211 C246.95577,36.8106818 247.174011,34.7136608 246.846915,33.3743684 L246.846915,33.3743684 L246.785053,33.167442 C246.145134,31.201005 244.289695,30.2162801 241.217292,30.2147226 L241.217292,30.2147226 L240.855095,30.2202781 C238.076279,30.3070081 235.25203,31.4089215 232.383753,33.5274364 L232.383753,33.5274364 L232.113539,33.7336267 C229.251259,35.985597 227.029125,39.9210404 225.448594,45.5473026 L225.448594,45.5473026 L218.73715,69.4242995 L211.07332,69.4162433 L223.727588,24.394916 L231.306726,24.4029722 L229.510616,30.7915472 L229.937686,30.4073924 C232.196548,28.3918502 234.153826,26.9089276 235.808188,25.9626546 C238.812358,24.2579604 241.914004,23.4072246 245.116321,23.4072246 L245.116321,23.4072246 L245.132301,23.4072246 Z M104.776829,57.0322364 L105.055466,57.0391588 C105.241658,57.0483488 105.428797,57.0666096 105.617357,57.0934636 L105.617357,57.0934636 L105.834919,57.1289006 C108.930941,57.692457 111.052792,60.6313119 110.604599,63.7994533 L110.604599,63.7994533 L110.569345,64.0188233 C110.008874,67.1405727 107.092785,69.2800201 103.953878,68.8265287 L103.953878,68.8265287 L103.736212,68.7910893 C100.638768,68.2274637 98.5184433,65.2871058 98.9666356,62.120539 C99.3853018,59.165521 101.900495,57.0322364 104.776829,57.0322364 L104.776829,57.0322364 Z M189.339427,28.8677241 C189.27621,28.9270412 188.666847,29.5002427 187.723059,30.4416411 L187.414156,30.750989 C184.485272,33.6956632 178.944906,39.5933026 176.04118,44.8045199 L176.04118,44.8045199 L175.903755,45.0542625 L175.718718,45.3796551 C175.067676,46.578464 174.716735,47.8409057 174.614199,49.196766 L174.614199,49.196766 L174.610204,49.4398621 L174.610204,49.4398621 L174.611003,49.6914173 L174.616446,49.8799935 C174.689763,51.7201161 175.378131,54.0450472 177.976313,55.5885635 C177.976313,55.5885635 179.388912,56.5601425 181.410335,56.5601425 L181.410335,56.5601425 L181.599004,56.5573163 C183.058378,56.5135451 184.810534,55.9513615 186.568559,54.1787266 L186.568559,54.1787266 C186.642726,54.1181439 187.160551,53.7211338 187.640792,54.0820521 L187.640792,54.0820521 L187.714733,54.1423963 C188.160877,54.5398221 188.184179,55.2350569 187.669555,56.6922643 L187.669555,56.6922643 L187.591398,56.9056763 C187.015596,58.429676 185.832842,60.5624679 183.772124,61.814403 L183.772124,61.814403 L195.216734,61.814403 C195.119465,61.7477763 193.855329,60.8626363 192.610457,58.9898956 L192.610457,58.9898956 L192.515777,58.8430711 L192.515777,58.8430711 L192.418701,58.6902045 L192.124406,58.172014 C191.555345,57.1257871 191.095131,56.0229083 190.593828,54.907008 L190.593828,54.907008 L190.538432,54.7965484 C190.49937,54.7195669 190.457468,54.6390048 190.421248,54.5734809 L190.421248,54.5734809 L190.320655,54.4050112 C189.598759,53.2239292 188.504128,52.0244959 187.036762,52.0244959 L187.036762,52.0244959 L186.762317,52.0231042 C184.070754,51.9951364 182.962472,51.541591 183.121753,50.2988556 L183.121753,50.2988556 L183.12435,50.2881107 C183.141602,50.2176809 183.244215,49.8131393 183.41418,49.4352298 L183.41418,49.4352298 L183.457026,49.3256895 C183.574346,48.9701268 183.438586,48.7075343 183.107371,48.4555946 L183.107371,48.4555946 L183.016471,48.3853488 C182.741108,48.1662634 182.736354,48.0853019 182.829326,47.765983 L182.829326,47.765983 L182.86345,47.6779409 C182.998538,47.4111235 183.338204,47.4043323 183.617122,47.4614582 L183.617122,47.4614582 L183.604347,47.4576021 C183.496353,47.4239311 182.739498,47.1664858 182.714273,46.5575514 L182.714273,46.5575514 C182.705868,46.5111237 182.68693,46.3244583 182.902832,46.122516 L182.902832,46.122516 L182.948236,46.0809329 C183.230114,45.8274946 183.899606,45.2753607 183.404593,44.6240608 L183.404593,44.6240608 C183.40394,44.6170438 183.379886,44.5655603 182.872471,44.2889225 L182.872471,44.2889225 L182.78495,44.236472 C182.311191,43.9268754 182.222988,43.4116011 182.944379,42.9322566 L182.944379,42.9322566 L183.102436,42.827512 C183.862867,42.3224337 184.917011,41.5942811 185.173537,40.8408643 L185.173537,40.8408643 L185.219605,40.6965993 C185.45108,39.9188268 185.459573,39.0282169 185.459573,39.0282169 C185.464188,38.9309842 185.576002,37.214943 187.861311,34.4861254 L187.861311,34.4861254 L187.861311,34.4829029 C187.871431,34.4723403 187.882085,34.4608826 187.894868,34.4458444 L187.894868,34.4458444 L187.913445,34.4224814 L187.913445,34.4224814 L187.93242,34.4001254 L187.93242,34.4001254 L187.931621,34.4023408 L187.992318,34.3347504 C188.175972,34.131871 188.527129,33.7598133 188.880811,33.504879 L188.880811,33.504879 L188.868982,33.532009 C188.844902,33.6088041 188.802511,33.8222937 188.794521,33.8545185 L188.794521,33.8545185 L188.725158,34.1758121 C188.681599,34.390525 188.643248,34.6064315 188.609158,34.8244863 L188.609158,34.8244863 L188.53338,35.3449324 C188.42082,36.2148539 188.377986,37.0963376 188.420598,37.9744646 L188.420598,37.9744646 L188.445912,38.3494286 C188.594187,40.0996213 189.16461,41.8475684 190.162378,43.2867299 L190.162378,43.2867299 L190.460148,43.6962466 C191.173414,44.6315632 192.009023,45.4341128 192.821388,46.2884739 L192.821388,46.2884739 L192.978088,46.4567484 C193.759161,47.3116253 194.489761,48.3676812 194.539198,49.5625179 L194.539198,49.5625179 L194.540596,49.5808458 L194.540596,49.5808458 L194.540796,49.5979653 L194.539171,49.8253628 C194.489243,50.9614537 193.82381,52.0773648 193.064278,52.870398 L193.064278,52.870398 L193.032229,52.9014949 C192.841762,53.0816516 192.016015,53.818614 191.93292,53.8081409 L191.93292,53.8081409 L191.919138,53.8282814 L191.919138,53.8282814 L191.904157,53.848422 C191.925332,53.873182 192.003342,53.9631142 192.135934,54.0988589 L192.262811,54.2258767 C193.26589,55.2086338 196.263943,57.6639649 199.866806,56.084826 L199.866806,56.084826 L200.137957,55.9603143 C203.420662,54.3845059 204.436181,51.3364955 204.051871,48.3556976 L204.051871,48.3556976 L204.030979,48.243209 C204.017959,48.172195 204.006595,48.1081034 203.995942,48.0447279 L203.995942,48.0447279 L203.930639,47.6959387 C203.665785,46.425989 203.123321,45.2535194 202.36602,44.1487444 L202.36602,44.1487444 L202.278532,44.0079621 L202.278532,44.0079621 L202.188646,43.8683883 L202.063687,43.6739521 C200.100495,40.6337275 195.965941,34.9027515 189.339427,28.8677241 L189.339427,28.8677241 Z M188.279977,35.5978825 L188.147938,35.9263372 C188.063542,36.147137 187.986485,36.3712787 187.91724,36.5968526 L187.91724,36.5968526 L187.799949,37.0191398 C187.655749,37.5855752 187.559616,38.1645912 187.503367,38.7446383 L187.503367,38.7446383 L187.468429,39.1734092 C187.431459,39.7456708 187.432737,40.3197886 187.46981,40.8908128 L187.46981,40.8908128 L187.495178,41.2219231 L187.495178,41.2219231 L187.528935,41.5530334 L187.578242,41.9123323 C187.744867,42.9901324 188.08183,44.0620596 188.642715,44.9930353 L188.642715,44.9930353 L188.888053,45.3710356 C189.741625,46.6007486 190.933758,47.5439245 191.888178,48.6908359 L191.888178,48.6908359 L192.041275,48.8811833 C192.493118,49.4606069 192.870925,50.1153351 192.985978,50.8418442 C193.110619,51.6506877 192.853347,52.5594283 192.193388,53.0250772 L192.193388,53.0250772 L192.356646,52.9291274 C193.101507,52.4537379 193.603324,51.599665 193.655524,50.7048886 L193.655524,50.7048886 L193.6593,50.4738039 C193.636422,49.4766864 193.113587,48.5374227 192.487414,47.7579268 L192.487414,47.7579268 L191.973019,47.1448491 C191.449137,46.5418418 190.905031,45.9605862 190.414856,45.3249512 L190.414856,45.3249512 L190.175053,45.001189 C189.236306,43.6931919 188.5461,42.2303747 188.211265,40.6330141 L188.211265,40.6330141 L188.141953,40.2735057 L188.141953,40.2735057 L188.083428,39.9127889 L188.035075,39.5396371 C188.006903,39.2903123 187.987017,39.0400327 187.976364,38.7897531 L187.976364,38.7897531 L187.969617,38.4534809 C187.969262,38.2295779 187.975299,38.0061524 187.976364,37.7827268 L187.976364,37.7827268 L187.988675,37.4164377 C188.002997,37.1736773 188.02963,36.9330651 188.069046,36.6903046 L188.069046,36.6903046 L188.114988,36.413171 L188.114988,36.413171 L188.16812,36.1360373 L188.224049,35.8605149 L188.239259,35.7738062 C188.248728,35.7131758 188.258671,35.6494422 188.279977,35.5978825 L188.279977,35.5978825 Z M78.063683,17.8000804 L77.7046348,17.8044413 C75.211448,17.8701145 73.1397056,18.6744206 71.3810022,20.2524125 L71.3810022,20.2524125 L71.1214186,20.4925659 C69.4256247,22.1110735 68.4241621,24.080954 68.0604353,26.5024207 L68.0604353,26.5024207 L68.0170478,26.8203133 C67.7337924,29.1309505 68.21912,30.9903605 69.495406,32.4930189 L69.495406,32.4930189 L69.6727434,32.6941841 C70.9959415,34.1358097 72.8204889,34.8391275 75.2400826,34.8422099 L75.2400826,34.8422099 L75.2544643,34.8422099 L75.6133741,34.8370217 C78.1061512,34.765889 80.1892642,33.9629112 81.9738982,32.3818432 L81.9738982,32.3818432 L82.2366124,32.1419305 C83.9528394,30.5250931 84.9659696,28.5581355 85.3312182,26.1366688 L85.3312182,26.1366688 L85.374343,25.8195984 C85.6552724,23.514855 85.1588467,21.6583264 83.8626903,20.1541268 L83.8626903,20.1541268 L83.6812658,19.9523581 C82.3286913,18.5065022 80.4878622,17.8031835 78.063683,17.8000804 L78.063683,17.8000804 Z" id="J9com"></path>
                        </g>
                    </g>
                </g>
            </g>
        </g>
    </g>
</svg>